<svg xmlns="http://www.w3.org/2000/svg" xmlns:xlink="http://www.w3.org/1999/xlink" width="600" zoomAndPan="magnify" viewBox="0 0 450 44.999999" height="60" preserveAspectRatio="xMidYMid meet" version="1.0"><defs><g/></defs><g fill="#ffffff" fill-opacity="1"><g transform="translate(16.944971, 32.979891)"><g><path d="M 19.703125 0.03125 L 15.640625 -9.5 L 6.40625 -9.5 L 2.1875 0.03125 L 1.3125 0.03125 L 12.0625 -24.125 L 12.28125 -24.125 L 22.609375 0.03125 Z M 6.703125 -10.09375 L 15.375 -10.09375 L 11.125 -20.046875 Z M 6.703125 -10.09375 "/></g></g></g><g fill="#ffffff" fill-opacity="1"><g transform="translate(64.515114, 32.979891)"><g><path d="M 11 -12.59375 C 12.082031 -12.46875 13.109375 -12.191406 14.078125 -11.765625 C 15.046875 -11.335938 15.835938 -10.703125 16.453125 -9.859375 C 17.066406 -9.015625 17.375 -7.914062 17.375 -6.5625 C 17.375 -5.28125 17.097656 -4.222656 16.546875 -3.390625 C 15.992188 -2.554688 15.300781 -1.90625 14.46875 -1.4375 C 13.644531 -0.976562 12.796875 -0.640625 11.921875 -0.421875 C 11.054688 -0.210938 10.285156 -0.0820312 9.609375 -0.03125 C 8.929688 0.0078125 8.492188 0.03125 8.296875 0.03125 L 1.8125 0.03125 L 1.8125 -23.671875 L 8.96875 -23.671875 C 9.320312 -23.671875 9.800781 -23.644531 10.40625 -23.59375 C 11.007812 -23.539062 11.660156 -23.425781 12.359375 -23.25 C 13.066406 -23.070312 13.738281 -22.800781 14.375 -22.4375 C 15.019531 -22.070312 15.539062 -21.582031 15.9375 -20.96875 C 16.34375 -20.351562 16.546875 -19.570312 16.546875 -18.625 C 16.546875 -17.363281 16.257812 -16.332031 15.6875 -15.53125 C 15.125 -14.726562 14.421875 -14.09375 13.578125 -13.625 C 12.742188 -13.15625 11.882812 -12.8125 11 -12.59375 Z M 7.53125 -23.03125 L 4.515625 -23.03125 L 4.515625 -12.734375 L 6.5625 -12.734375 C 8.769531 -12.734375 10.515625 -13.179688 11.796875 -14.078125 C 13.078125 -14.972656 13.71875 -16.347656 13.71875 -18.203125 C 13.71875 -20.035156 13.144531 -21.296875 12 -21.984375 C 10.851562 -22.679688 9.363281 -23.03125 7.53125 -23.03125 Z M 6.5625 -0.609375 C 8.019531 -0.609375 9.347656 -0.753906 10.546875 -1.046875 C 11.753906 -1.347656 12.722656 -1.898438 13.453125 -2.703125 C 14.179688 -3.515625 14.546875 -4.660156 14.546875 -6.140625 C 14.546875 -7.148438 14.359375 -8.101562 13.984375 -9 C 13.609375 -9.90625 12.914062 -10.644531 11.90625 -11.21875 C 10.90625 -11.800781 9.445312 -12.09375 7.53125 -12.09375 L 4.515625 -12.09375 L 4.515625 -0.609375 Z M 6.5625 -0.609375 "/></g></g></g><g fill="#ffffff" fill-opacity="1"><g transform="translate(106.997442, 32.979891)"><g><path d="M 11.609375 -23.671875 C 12.460938 -23.671875 13.421875 -23.59375 14.484375 -23.4375 C 15.554688 -23.289062 16.625 -23.003906 17.6875 -22.578125 C 18.757812 -22.148438 19.734375 -21.519531 20.609375 -20.6875 C 21.492188 -19.863281 22.207031 -18.757812 22.75 -17.375 C 23.289062 -15.988281 23.5625 -14.265625 23.5625 -12.203125 C 23.5625 -10.066406 23.257812 -8.273438 22.65625 -6.828125 C 22.050781 -5.390625 21.257812 -4.222656 20.28125 -3.328125 C 19.300781 -2.441406 18.25 -1.757812 17.125 -1.28125 C 16.007812 -0.800781 14.929688 -0.472656 13.890625 -0.296875 C 12.847656 -0.117188 11.953125 -0.0195312 11.203125 0 C 10.460938 0.0195312 9.992188 0.03125 9.796875 0.03125 L 1.8125 0.03125 L 1.8125 -23.671875 Z M 9.765625 -0.609375 C 11.046875 -0.609375 12.335938 -0.78125 13.640625 -1.125 C 14.953125 -1.476562 16.144531 -2.082031 17.21875 -2.9375 C 18.300781 -3.789062 19.164062 -4.972656 19.8125 -6.484375 C 20.46875 -7.992188 20.796875 -9.898438 20.796875 -12.203125 C 20.796875 -14.046875 20.570312 -15.609375 20.125 -16.890625 C 19.675781 -18.171875 19.066406 -19.210938 18.296875 -20.015625 C 17.523438 -20.816406 16.675781 -21.429688 15.75 -21.859375 C 14.820312 -22.285156 13.875 -22.578125 12.90625 -22.734375 C 11.9375 -22.898438 11.023438 -22.984375 10.171875 -22.984375 L 4.515625 -22.984375 L 4.515625 -0.609375 Z M 9.765625 -0.609375 "/></g></g></g><g fill="#ffffff" fill-opacity="1"><g transform="translate(155.886651, 32.979891)"><g><path d="M 13.828125 -23.03125 L 4.515625 -23.03125 L 4.515625 -12.65625 L 12.8125 -12.65625 L 12.8125 -12.015625 L 4.515625 -12.015625 L 4.515625 -0.609375 L 13.828125 -0.609375 L 13.828125 0.03125 L 1.8125 0.03125 L 1.8125 -23.671875 L 13.828125 -23.671875 Z M 13.828125 -23.03125 "/></g></g></g><g fill="#ffffff" fill-opacity="1"><g transform="translate(194.901732, 32.979891)"><g><path d="M 4.515625 -0.609375 L 13.9375 -0.609375 L 13.9375 0.03125 L 1.8125 0.03125 L 1.8125 -23.671875 L 4.515625 -23.671875 Z M 4.515625 -0.609375 "/></g></g></g><g fill="#ffffff" fill-opacity="1"><g transform="translate(233.879116, 32.979891)"><g><path d="M 1.8125 0.03125 L 1.8125 -23.671875 L 4.515625 -23.671875 L 4.515625 0.03125 Z M 7.46875 -13.6875 L 19.140625 0.03125 L 15.609375 0.03125 L 5.15625 -12.203125 L 16.3125 -23.671875 L 17.1875 -23.671875 Z M 7.46875 -13.6875 "/></g></g></g><g fill="#ffffff" fill-opacity="1"><g transform="translate(277.90664, 32.979891)"><g><path d="M 19.703125 0.03125 L 15.640625 -9.5 L 6.40625 -9.5 L 2.1875 0.03125 L 1.3125 0.03125 L 12.0625 -24.125 L 12.28125 -24.125 L 22.609375 0.03125 Z M 6.703125 -10.09375 L 15.375 -10.09375 L 11.125 -20.046875 Z M 6.703125 -10.09375 "/></g></g></g><g fill="#ffffff" fill-opacity="1"><g transform="translate(325.476774, 32.979891)"><g><path d="M 11.609375 -23.671875 C 12.460938 -23.671875 13.421875 -23.59375 14.484375 -23.4375 C 15.554688 -23.289062 16.625 -23.003906 17.6875 -22.578125 C 18.757812 -22.148438 19.734375 -21.519531 20.609375 -20.6875 C 21.492188 -19.863281 22.207031 -18.757812 22.75 -17.375 C 23.289062 -15.988281 23.5625 -14.265625 23.5625 -12.203125 C 23.5625 -10.066406 23.257812 -8.273438 22.65625 -6.828125 C 22.050781 -5.390625 21.257812 -4.222656 20.28125 -3.328125 C 19.300781 -2.441406 18.25 -1.757812 17.125 -1.28125 C 16.007812 -0.800781 14.929688 -0.472656 13.890625 -0.296875 C 12.847656 -0.117188 11.953125 -0.0195312 11.203125 0 C 10.460938 0.0195312 9.992188 0.03125 9.796875 0.03125 L 1.8125 0.03125 L 1.8125 -23.671875 Z M 9.765625 -0.609375 C 11.046875 -0.609375 12.335938 -0.78125 13.640625 -1.125 C 14.953125 -1.476562 16.144531 -2.082031 17.21875 -2.9375 C 18.300781 -3.789062 19.164062 -4.972656 19.8125 -6.484375 C 20.46875 -7.992188 20.796875 -9.898438 20.796875 -12.203125 C 20.796875 -14.046875 20.570312 -15.609375 20.125 -16.890625 C 19.675781 -18.171875 19.066406 -19.210938 18.296875 -20.015625 C 17.523438 -20.816406 16.675781 -21.429688 15.75 -21.859375 C 14.820312 -22.285156 13.875 -22.578125 12.90625 -22.734375 C 11.9375 -22.898438 11.023438 -22.984375 10.171875 -22.984375 L 4.515625 -22.984375 L 4.515625 -0.609375 Z M 9.765625 -0.609375 "/></g></g></g><g fill="#ffffff" fill-opacity="1"><g transform="translate(374.365999, 32.979891)"><g><path d="M 13.828125 -23.03125 L 4.515625 -23.03125 L 4.515625 -12.65625 L 12.8125 -12.65625 L 12.8125 -12.015625 L 4.515625 -12.015625 L 4.515625 -0.609375 L 13.828125 -0.609375 L 13.828125 0.03125 L 1.8125 0.03125 L 1.8125 -23.671875 L 13.828125 -23.671875 Z M 13.828125 -23.03125 "/></g></g></g><g fill="#ffffff" fill-opacity="1"><g transform="translate(413.381057, 32.979891)"><g><path d="M 18.390625 0.03125 L 15 0.03125 L 6.25 -10.96875 L 4.515625 -10.96875 L 4.515625 0.03125 L 1.8125 0.03125 L 1.8125 -23.671875 C 1.8125 -23.671875 2.09375 -23.671875 2.65625 -23.671875 C 3.21875 -23.671875 3.898438 -23.671875 4.703125 -23.671875 C 5.515625 -23.671875 6.316406 -23.671875 7.109375 -23.671875 C 7.898438 -23.671875 8.519531 -23.671875 8.96875 -23.671875 C 9.445312 -23.671875 10.101562 -23.597656 10.9375 -23.453125 C 11.78125 -23.316406 12.628906 -23.046875 13.484375 -22.640625 C 14.347656 -22.242188 15.070312 -21.648438 15.65625 -20.859375 C 16.25 -20.066406 16.546875 -19.03125 16.546875 -17.75 C 16.546875 -16.519531 16.316406 -15.5 15.859375 -14.6875 C 15.410156 -13.882812 14.820312 -13.238281 14.09375 -12.75 C 13.363281 -12.257812 12.597656 -11.890625 11.796875 -11.640625 C 10.992188 -11.390625 10.238281 -11.21875 9.53125 -11.125 Z M 4.515625 -23.03125 L 4.515625 -11.609375 L 6.5625 -11.609375 C 8.769531 -11.609375 10.515625 -12.035156 11.796875 -12.890625 C 13.078125 -13.742188 13.71875 -15.210938 13.71875 -17.296875 C 13.71875 -19.378906 13.171875 -20.851562 12.078125 -21.71875 C 10.984375 -22.59375 9.46875 -23.03125 7.53125 -23.03125 Z M 4.515625 -23.03125 "/></g></g></g></svg>